<mxfile host="app.diagrams.net" agent="Mozilla/5.0 (Windows NT 10.0; Win64; x64) AppleWebKit/537.36 (KHTML, like Gecko) Chrome/141.0.0.0 Safari/537.36 Edg/141.0.0.0" version="28.2.8">
  <diagram name="Página-1" id="_ZTNZsQTunlF2dTnrAtg">
    <mxGraphModel dx="1571" dy="862" grid="1" gridSize="10" guides="1" tooltips="1" connect="1" arrows="1" fold="1" page="1" pageScale="1" pageWidth="827" pageHeight="1169" math="0" shadow="0">
      <root>
        <mxCell id="0" />
        <mxCell id="1" parent="0" />
        <mxCell id="U2cZ-3FYzdDIuKckNW5q-1" value="" style="rounded=0;whiteSpace=wrap;html=1;" vertex="1" parent="1">
          <mxGeometry x="33" y="20" width="767" height="1430" as="geometry" />
        </mxCell>
        <mxCell id="U2cZ-3FYzdDIuKckNW5q-2" value="&lt;font style=&quot;font-size: 16px;&quot;&gt;Capa de presentacion Frontend&lt;/font&gt;" style="text;html=1;whiteSpace=wrap;strokeColor=none;fillColor=none;align=center;verticalAlign=middle;rounded=0;" vertex="1" parent="1">
          <mxGeometry x="269" y="30" width="289" height="30" as="geometry" />
        </mxCell>
        <mxCell id="U2cZ-3FYzdDIuKckNW5q-3" value="&lt;span style=&quot;font-weight: normal;&quot;&gt;&lt;font style=&quot;font-size: 13px;&quot;&gt;Componente [InputPanel]&lt;/font&gt;&lt;/span&gt;" style="swimlane;whiteSpace=wrap;html=1;" vertex="1" parent="1">
          <mxGeometry x="80" y="80" width="200" height="110" as="geometry" />
        </mxCell>
        <mxCell id="U2cZ-3FYzdDIuKckNW5q-4" value="&lt;font style=&quot;font-size: 14px;&quot;&gt;- Editor de codigo&lt;/font&gt;&lt;div&gt;&lt;font style=&quot;font-size: 14px;&quot;&gt;- Selector de entrada&lt;/font&gt;&lt;/div&gt;&lt;div&gt;&lt;font style=&quot;font-size: 14px;&quot;&gt;- PseudoCodigo/Natural&lt;/font&gt;&lt;/div&gt;&lt;div&gt;&lt;font style=&quot;font-size: 14px;&quot;&gt;- Visualizar Diagrama&lt;/font&gt;&lt;/div&gt;" style="text;html=1;whiteSpace=wrap;strokeColor=none;fillColor=none;align=center;verticalAlign=middle;rounded=0;" vertex="1" parent="U2cZ-3FYzdDIuKckNW5q-3">
          <mxGeometry y="20" width="200" height="90" as="geometry" />
        </mxCell>
        <mxCell id="U2cZ-3FYzdDIuKckNW5q-5" value="&lt;span style=&quot;font-weight: 400;&quot;&gt;&lt;font style=&quot;font-size: 13px;&quot;&gt;Componente [ControlPanel]&lt;/font&gt;&lt;/span&gt;" style="swimlane;whiteSpace=wrap;html=1;" vertex="1" parent="1">
          <mxGeometry x="318.5" y="80" width="190" height="110" as="geometry" />
        </mxCell>
        <mxCell id="U2cZ-3FYzdDIuKckNW5q-6" value="&lt;div style=&quot;&quot;&gt;&lt;span style=&quot;background-color: transparent; color: light-dark(rgb(0, 0, 0), rgb(255, 255, 255));&quot;&gt;&lt;font style=&quot;font-size: 14px;&quot;&gt;- Botón &quot;Analizar&quot;&lt;/font&gt;&lt;/span&gt;&lt;/div&gt;&lt;div style=&quot;&quot;&gt;&lt;font style=&quot;font-size: 14px;&quot;&gt;- Indicador de Carga&lt;/font&gt;&lt;/div&gt;" style="text;html=1;whiteSpace=wrap;strokeColor=none;fillColor=none;align=center;verticalAlign=middle;rounded=0;" vertex="1" parent="U2cZ-3FYzdDIuKckNW5q-5">
          <mxGeometry y="20" width="190" height="90" as="geometry" />
        </mxCell>
        <mxCell id="U2cZ-3FYzdDIuKckNW5q-7" value="&lt;span style=&quot;font-weight: 400;&quot;&gt;&lt;font style=&quot;font-size: 13px;&quot;&gt;Componente[ResultsDisplay]&lt;/font&gt;&lt;/span&gt;" style="swimlane;whiteSpace=wrap;html=1;" vertex="1" parent="1">
          <mxGeometry x="540" y="80" width="200" height="110" as="geometry" />
        </mxCell>
        <mxCell id="U2cZ-3FYzdDIuKckNW5q-8" value="&lt;font style=&quot;font-size: 14px;&quot;&gt;- Pestañas (O, Ω, Θ)&amp;nbsp;&lt;/font&gt;&lt;div&gt;&lt;font style=&quot;font-size: 14px;&quot;&gt;-Vista de Razonamiento&lt;/font&gt;&lt;/div&gt;&lt;div&gt;&lt;font style=&quot;font-size: 14px;&quot;&gt;(Pseudcódigo/Natural)&lt;/font&gt;&lt;/div&gt;&lt;div&gt;&lt;font style=&quot;font-size: 14px;&quot;&gt;- Métricas LLM (Costo)&lt;/font&gt;&lt;/div&gt;" style="text;html=1;whiteSpace=wrap;strokeColor=none;fillColor=none;align=center;verticalAlign=middle;rounded=0;" vertex="1" parent="U2cZ-3FYzdDIuKckNW5q-7">
          <mxGeometry y="20" width="200" height="90" as="geometry" />
        </mxCell>
        <mxCell id="U2cZ-3FYzdDIuKckNW5q-10" value="" style="rounded=0;whiteSpace=wrap;html=1;" vertex="1" parent="1">
          <mxGeometry x="61.5" y="230" width="710" height="100" as="geometry" />
        </mxCell>
        <mxCell id="U2cZ-3FYzdDIuKckNW5q-11" value="&lt;font style=&quot;font-size: 16px;&quot;&gt;Api Call: POST /api/analyze&lt;/font&gt;&lt;div&gt;&lt;font style=&quot;font-size: 16px;&quot;&gt;{ type: &quot;natural&quot;,&amp;nbsp; content: &quot;...&quot; }&lt;/font&gt;&lt;/div&gt;" style="text;html=1;whiteSpace=wrap;strokeColor=none;fillColor=none;align=center;verticalAlign=middle;rounded=0;" vertex="1" parent="1">
          <mxGeometry x="90" y="247.5" width="300" height="65" as="geometry" />
        </mxCell>
        <mxCell id="U2cZ-3FYzdDIuKckNW5q-13" value="&lt;font style=&quot;font-size: 16px;&quot;&gt;API Response : JSON&lt;/font&gt;&lt;div&gt;&lt;font style=&quot;font-size: 16px;&quot;&gt;{ analysis_result }&lt;/font&gt;&lt;/div&gt;" style="text;html=1;whiteSpace=wrap;strokeColor=none;fillColor=none;align=center;verticalAlign=middle;rounded=0;" vertex="1" parent="1">
          <mxGeometry x="500" y="252.5" width="170" height="55" as="geometry" />
        </mxCell>
        <mxCell id="U2cZ-3FYzdDIuKckNW5q-14" value="&lt;font style=&quot;font-size: 16px;&quot;&gt;Capa de lógica (Backend)&lt;/font&gt;" style="text;html=1;whiteSpace=wrap;strokeColor=none;fillColor=none;align=center;verticalAlign=middle;rounded=0;" vertex="1" parent="1">
          <mxGeometry x="313.5" y="350" width="206" height="30" as="geometry" />
        </mxCell>
        <mxCell id="U2cZ-3FYzdDIuKckNW5q-15" value="&lt;span style=&quot;font-weight: normal;&quot;&gt;&lt;font style=&quot;font-size: 13px;&quot;&gt;API Gateway/Orquestador&amp;nbsp;&lt;/font&gt;&lt;/span&gt;" style="swimlane;whiteSpace=wrap;html=1;startSize=23;" vertex="1" parent="1">
          <mxGeometry x="80" y="410" width="680" height="190" as="geometry" />
        </mxCell>
        <mxCell id="U2cZ-3FYzdDIuKckNW5q-16" value="&lt;div style=&quot;text-align: justify;&quot;&gt;&lt;span style=&quot;background-color: transparent; color: light-dark(rgb(0, 0, 0), rgb(255, 255, 255));&quot;&gt;&lt;font style=&quot;font-size: 16px;&quot;&gt;1. Recibir Request&lt;/font&gt;&lt;/span&gt;&lt;/div&gt;&lt;div style=&quot;text-align: justify;&quot;&gt;&lt;font style=&quot;font-size: 16px;&quot;&gt;2. Determinar Flujo (¿Traducción?)&lt;/font&gt;&lt;/div&gt;&lt;div style=&quot;text-align: justify;&quot;&gt;&lt;font style=&quot;font-size: 16px;&quot;&gt;3. Lanzar Tareas en Paralelo:&amp;nbsp;&lt;/font&gt;&lt;/div&gt;&lt;div style=&quot;text-align: justify;&quot;&gt;&lt;font style=&quot;font-size: 16px;&quot;&gt;&amp;nbsp;- Llamar al Analizador Central&lt;/font&gt;&lt;/div&gt;&lt;div style=&quot;text-align: justify;&quot;&gt;&lt;font style=&quot;font-size: 16px;&quot;&gt;&amp;nbsp;- Llamar al Asistente LLM&lt;/font&gt;&lt;/div&gt;&lt;div style=&quot;text-align: justify;&quot;&gt;&lt;font style=&quot;font-size: 16px;&quot;&gt;4. Consolidar Respuestas&amp;nbsp;&lt;/font&gt;&lt;/div&gt;&lt;div style=&quot;text-align: justify;&quot;&gt;&lt;font style=&quot;font-size: 16px;&quot;&gt;5. Formatear y Enviar el JSON de Salida&lt;/font&gt;&lt;/div&gt;" style="text;html=1;whiteSpace=wrap;strokeColor=none;fillColor=none;align=center;verticalAlign=middle;rounded=0;" vertex="1" parent="U2cZ-3FYzdDIuKckNW5q-15">
          <mxGeometry y="30" width="680" height="160" as="geometry" />
        </mxCell>
        <mxCell id="U2cZ-3FYzdDIuKckNW5q-17" value="&lt;font style=&quot;font-size: 13px;&quot;&gt;Módulo: Analizador Central (Motor)&amp;nbsp;&amp;nbsp;&lt;/font&gt;" style="swimlane;whiteSpace=wrap;html=1;" vertex="1" parent="1">
          <mxGeometry x="80" y="660" width="310" height="410" as="geometry" />
        </mxCell>
        <mxCell id="U2cZ-3FYzdDIuKckNW5q-21" value="&lt;font style=&quot;font-size: 13px;&quot;&gt;Módulo: Asistente LLM (Wrapper API)&lt;/font&gt;" style="swimlane;whiteSpace=wrap;html=1;" vertex="1" parent="1">
          <mxGeometry x="440" y="660" width="310" height="580" as="geometry" />
        </mxCell>
        <mxCell id="U2cZ-3FYzdDIuKckNW5q-34" value="&lt;div style=&quot;text-align: justify;&quot;&gt;&lt;span style=&quot;background-color: transparent; color: light-dark(rgb(0, 0, 0), rgb(255, 255, 255));&quot;&gt;&lt;font style=&quot;font-size: 15px;&quot;&gt;Gestor de Prompts&amp;nbsp;&lt;/font&gt;&lt;/span&gt;&lt;/div&gt;&lt;div style=&quot;text-align: justify;&quot;&gt;&lt;font style=&quot;font-size: 15px;&quot;&gt;&lt;br&gt;&lt;/font&gt;&lt;/div&gt;&lt;div style=&quot;text-align: justify;&quot;&gt;&lt;font style=&quot;font-size: 15px;&quot;&gt;- Plantillas (Traducir, Validar, ...)&lt;/font&gt;&lt;/div&gt;&lt;div style=&quot;text-align: justify;&quot;&gt;&lt;font style=&quot;font-size: 15px;&quot;&gt;- Ingeniería de Prompts&lt;/font&gt;&lt;/div&gt;" style="rounded=0;whiteSpace=wrap;html=1;align=center;" vertex="1" parent="U2cZ-3FYzdDIuKckNW5q-21">
          <mxGeometry x="40" y="60" width="225.75" height="140" as="geometry" />
        </mxCell>
        <mxCell id="U2cZ-3FYzdDIuKckNW5q-23" value="" style="endArrow=classic;html=1;rounded=0;entryX=0.5;entryY=0;entryDx=0;entryDy=0;exitX=0.228;exitY=0.995;exitDx=0;exitDy=0;exitPerimeter=0;" edge="1" parent="1" source="U2cZ-3FYzdDIuKckNW5q-16" target="U2cZ-3FYzdDIuKckNW5q-17">
          <mxGeometry width="50" height="50" relative="1" as="geometry">
            <mxPoint x="370" y="680" as="sourcePoint" />
            <mxPoint x="420" y="630" as="targetPoint" />
          </mxGeometry>
        </mxCell>
        <mxCell id="U2cZ-3FYzdDIuKckNW5q-24" value="" style="endArrow=classic;html=1;rounded=0;entryX=0.5;entryY=0;entryDx=0;entryDy=0;" edge="1" parent="1" target="U2cZ-3FYzdDIuKckNW5q-21">
          <mxGeometry width="50" height="50" relative="1" as="geometry">
            <mxPoint x="595" y="600" as="sourcePoint" />
            <mxPoint x="420" y="630" as="targetPoint" />
          </mxGeometry>
        </mxCell>
        <mxCell id="U2cZ-3FYzdDIuKckNW5q-25" value="&lt;font style=&quot;font-size: 13px;&quot;&gt;Lexer&amp;nbsp; (Tokenizer )&lt;/font&gt;" style="swimlane;whiteSpace=wrap;html=1;" vertex="1" parent="1">
          <mxGeometry x="143.5" y="710" width="170" height="80" as="geometry" />
        </mxCell>
        <mxCell id="U2cZ-3FYzdDIuKckNW5q-26" value="&lt;font style=&quot;font-size: 15px;&quot;&gt;- Divide texto en tokens&lt;/font&gt;&lt;div&gt;&lt;font style=&quot;font-size: 15px;&quot;&gt;-Identifica For, While,...&lt;/font&gt;&lt;/div&gt;" style="text;html=1;whiteSpace=wrap;strokeColor=none;fillColor=none;align=center;verticalAlign=middle;rounded=0;" vertex="1" parent="U2cZ-3FYzdDIuKckNW5q-25">
          <mxGeometry y="20" width="170" height="60" as="geometry" />
        </mxCell>
        <mxCell id="U2cZ-3FYzdDIuKckNW5q-27" value="&lt;font style=&quot;font-size: 13px;&quot;&gt;Parser&lt;/font&gt;" style="swimlane;whiteSpace=wrap;html=1;" vertex="1" parent="1">
          <mxGeometry x="148.5" y="830" width="170" height="80" as="geometry" />
        </mxCell>
        <mxCell id="U2cZ-3FYzdDIuKckNW5q-28" value="&lt;font style=&quot;font-size: 15px;&quot;&gt;- Construye AST&lt;/font&gt;&lt;div&gt;&lt;font style=&quot;font-size: 15px;&quot;&gt;- Valida Gramática&lt;/font&gt;&lt;/div&gt;" style="text;html=1;whiteSpace=wrap;strokeColor=none;fillColor=none;align=center;verticalAlign=middle;rounded=0;" vertex="1" parent="U2cZ-3FYzdDIuKckNW5q-27">
          <mxGeometry y="20" width="170" height="60" as="geometry" />
        </mxCell>
        <mxCell id="U2cZ-3FYzdDIuKckNW5q-29" value="Motor Análisis (AST)" style="swimlane;whiteSpace=wrap;html=1;" vertex="1" parent="1">
          <mxGeometry x="148.5" y="950" width="170" height="80" as="geometry" />
        </mxCell>
        <mxCell id="U2cZ-3FYzdDIuKckNW5q-30" value="&lt;font style=&quot;font-size: 15px;&quot;&gt;- Recoge Nodos AST&lt;/font&gt;&lt;div&gt;&lt;font style=&quot;font-size: 15px;&quot;&gt;- Aplica reglas O, Ω, Θ&lt;/font&gt;&lt;/div&gt;" style="text;html=1;whiteSpace=wrap;strokeColor=none;fillColor=none;align=center;verticalAlign=middle;rounded=0;" vertex="1" parent="U2cZ-3FYzdDIuKckNW5q-29">
          <mxGeometry y="20" width="170" height="60" as="geometry" />
        </mxCell>
        <mxCell id="U2cZ-3FYzdDIuKckNW5q-32" value="" style="endArrow=classic;html=1;rounded=0;entryX=0.5;entryY=0;entryDx=0;entryDy=0;exitX=0.53;exitY=1.033;exitDx=0;exitDy=0;exitPerimeter=0;" edge="1" parent="1" source="U2cZ-3FYzdDIuKckNW5q-26" target="U2cZ-3FYzdDIuKckNW5q-27">
          <mxGeometry width="50" height="50" relative="1" as="geometry">
            <mxPoint x="190" y="850" as="sourcePoint" />
            <mxPoint x="240" y="800" as="targetPoint" />
          </mxGeometry>
        </mxCell>
        <mxCell id="U2cZ-3FYzdDIuKckNW5q-33" value="" style="endArrow=classic;html=1;rounded=0;entryX=0.5;entryY=0;entryDx=0;entryDy=0;exitX=0.5;exitY=1;exitDx=0;exitDy=0;" edge="1" parent="1" source="U2cZ-3FYzdDIuKckNW5q-28" target="U2cZ-3FYzdDIuKckNW5q-29">
          <mxGeometry width="50" height="50" relative="1" as="geometry">
            <mxPoint x="170" y="950" as="sourcePoint" />
            <mxPoint x="220" y="900" as="targetPoint" />
          </mxGeometry>
        </mxCell>
        <mxCell id="U2cZ-3FYzdDIuKckNW5q-35" value="&lt;div style=&quot;text-align: justify;&quot;&gt;&lt;span style=&quot;background-color: transparent; color: light-dark(rgb(0, 0, 0), rgb(255, 255, 255));&quot;&gt;&lt;font style=&quot;font-size: 15px;&quot;&gt;Cliente API&lt;/font&gt;&lt;/span&gt;&lt;/div&gt;&lt;div style=&quot;text-align: justify;&quot;&gt;&lt;font style=&quot;font-size: 15px;&quot;&gt;&lt;br&gt;&lt;/font&gt;&lt;/div&gt;&lt;div style=&quot;text-align: justify;&quot;&gt;&lt;font style=&quot;font-size: 15px;&quot;&gt;- Llamadas HTTP (Get/Post)&lt;/font&gt;&lt;/div&gt;&lt;div style=&quot;text-align: justify;&quot;&gt;&lt;font style=&quot;font-size: 15px;&quot;&gt;- Maneja Autenticación (API Keys)&lt;/font&gt;&lt;/div&gt;&lt;div style=&quot;text-align: justify;&quot;&gt;&lt;font style=&quot;font-size: 15px;&quot;&gt;- Control de errores (timeouts, etc. )&lt;/font&gt;&lt;/div&gt;" style="rounded=0;whiteSpace=wrap;html=1;align=center;" vertex="1" parent="1">
          <mxGeometry x="472.13" y="890" width="245.75" height="140" as="geometry" />
        </mxCell>
        <mxCell id="U2cZ-3FYzdDIuKckNW5q-37" value="&lt;div style=&quot;text-align: justify;&quot;&gt;&lt;font style=&quot;font-size: 15px;&quot;&gt;Extractor de Datos y Métricas&lt;/font&gt;&lt;/div&gt;&lt;div style=&quot;text-align: justify;&quot;&gt;&lt;font style=&quot;font-size: 15px;&quot;&gt;&amp;nbsp;&lt;/font&gt;&lt;/div&gt;&lt;div style=&quot;text-align: justify;&quot;&gt;&lt;font style=&quot;font-size: 15px;&quot;&gt;- Parseo de respuestas LLM&lt;/font&gt;&lt;/div&gt;&lt;div style=&quot;text-align: justify;&quot;&gt;&lt;font style=&quot;font-size: 15px;&quot;&gt;- Conteo de tokens y latencia&amp;nbsp;&lt;/font&gt;&lt;/div&gt;&lt;div style=&quot;text-align: justify;&quot;&gt;&lt;font style=&quot;font-size: 15px;&quot;&gt;- Cálculo de métricas&amp;nbsp;&lt;/font&gt;&lt;/div&gt;" style="rounded=0;whiteSpace=wrap;html=1;align=center;" vertex="1" parent="1">
          <mxGeometry x="484.25" y="1070" width="221.5" height="140" as="geometry" />
        </mxCell>
        <mxCell id="U2cZ-3FYzdDIuKckNW5q-38" value="" style="endArrow=classic;html=1;rounded=0;entryX=0.5;entryY=0;entryDx=0;entryDy=0;exitX=0.51;exitY=1.008;exitDx=0;exitDy=0;exitPerimeter=0;" edge="1" parent="1" source="U2cZ-3FYzdDIuKckNW5q-34" target="U2cZ-3FYzdDIuKckNW5q-35">
          <mxGeometry width="50" height="50" relative="1" as="geometry">
            <mxPoint x="420" y="990" as="sourcePoint" />
            <mxPoint x="470" y="940" as="targetPoint" />
          </mxGeometry>
        </mxCell>
        <mxCell id="U2cZ-3FYzdDIuKckNW5q-39" value="" style="endArrow=classic;html=1;rounded=0;entryX=0.477;entryY=0.005;entryDx=0;entryDy=0;entryPerimeter=0;exitX=0.475;exitY=1.012;exitDx=0;exitDy=0;exitPerimeter=0;" edge="1" parent="1" source="U2cZ-3FYzdDIuKckNW5q-35" target="U2cZ-3FYzdDIuKckNW5q-37">
          <mxGeometry width="50" height="50" relative="1" as="geometry">
            <mxPoint x="460" y="1120" as="sourcePoint" />
            <mxPoint x="510" y="1070" as="targetPoint" />
          </mxGeometry>
        </mxCell>
        <mxCell id="U2cZ-3FYzdDIuKckNW5q-40" value="&lt;font style=&quot;font-size: 16px;&quot;&gt;CAPA DE SERVICIOS EXTERNOS&lt;/font&gt;&lt;div&gt;&lt;font style=&quot;font-size: 16px;&quot;&gt;&lt;br&gt;&lt;/font&gt;&lt;/div&gt;&lt;div&gt;&lt;font style=&quot;font-size: 16px;&quot;&gt;[API&amp;nbsp; De LLM:&amp;nbsp; Gemini /&amp;nbsp; Open AI]&lt;/font&gt;&lt;/div&gt;" style="rounded=0;whiteSpace=wrap;html=1;" vertex="1" parent="1">
          <mxGeometry x="71.5" y="1280" width="700" height="140" as="geometry" />
        </mxCell>
      </root>
    </mxGraphModel>
  </diagram>
</mxfile>
